<?xml version="1.0" encoding="UTF-8" standalone="no"?>
<svg
   xmlns:dc="http://purl.org/dc/elements/1.1/"
   xmlns:cc="http://creativecommons.org/ns#"
   xmlns:rdf="http://www.w3.org/1999/02/22-rdf-syntax-ns#"
   xmlns:svg="http://www.w3.org/2000/svg"
   xmlns="http://www.w3.org/2000/svg"
   xmlns:sodipodi="http://sodipodi.sourceforge.net/DTD/sodipodi-0.dtd"
   xmlns:inkscape="http://www.inkscape.org/namespaces/inkscape"
   width="560mm"
   height="120mm"
   viewBox="0 0 560 120"
   version="1.1"
   id="svg1233"
   sodipodi:docname="yiqilogo-white.svg"
   inkscape:version="1.0.2 (e86c8708, 2021-01-15)">
  <defs
     id="defs1227" />
  <sodipodi:namedview
     id="base"
     pagecolor="#ffffff"
     bordercolor="#666666"
     borderopacity="1.0"
     inkscape:pageopacity="0.0"
     inkscape:pageshadow="2"
     inkscape:zoom="0.35"
     inkscape:cx="926.6878"
     inkscape:cy="380.39292"
     inkscape:document-units="mm"
     inkscape:current-layer="layer1"
     inkscape:document-rotation="0"
     showgrid="false"
     inkscape:window-width="1920"
     inkscape:window-height="1035"
     inkscape:window-x="3600"
     inkscape:window-y="23"
     inkscape:window-maximized="0"
     inkscape:pagecheckerboard="true" />
  <metadata
     id="metadata1230">
    <rdf:RDF>
      <cc:Work
         rdf:about="">
        <dc:format>image/svg+xml</dc:format>
        <dc:type
           rdf:resource="http://purl.org/dc/dcmitype/StillImage" />
        <dc:title></dc:title>
      </cc:Work>
    </rdf:RDF>
  </metadata>
  <g
     inkscape:label="图层 1"
     inkscape:groupmode="layer"
     id="layer1">
    <g
       id="g923"
       transform="matrix(0.68564139,0,0,-0.68564139,29.323075,25.31916)"
       style="fill:#ffffff;fill-opacity:1;fill-rule:evenodd;stroke:#ffffff;stroke-opacity:1">
      <path
         d="M 0,0 23.378,-34.843"
         style="fill:#ffffff;stroke:#ffffff;stroke-width:7;stroke-linecap:butt;stroke-linejoin:miter;stroke-miterlimit:10;stroke-dasharray:none;stroke-opacity:1;fill-opacity:1;fill-rule:evenodd"
         id="path925" />
    </g>
    <g
       id="g927"
       transform="matrix(0.68564139,0,0,-0.68564139,51.431303,47.220192)"
       style="fill:#ffffff;fill-opacity:1;fill-rule:evenodd;stroke:#ffffff;stroke-opacity:1">
      <path
         d="M 0,0 22.587,34.832"
         style="fill:#ffffff;stroke:#ffffff;stroke-width:7;stroke-linecap:butt;stroke-linejoin:miter;stroke-miterlimit:10;stroke-dasharray:none;stroke-opacity:1;fill-opacity:1;fill-rule:evenodd"
         id="path929" />
    </g>
    <g
       id="g931"
       transform="matrix(0.68564139,0,0,-0.68564139,47.787463,57.462783)"
       style="fill:#ffffff;fill-opacity:1;fill-rule:evenodd;stroke:#ffffff;stroke-opacity:1">
      <path
         d="M 0,0 V -51.859"
         style="fill:#ffffff;stroke:#ffffff;stroke-width:7;stroke-linecap:butt;stroke-linejoin:miter;stroke-miterlimit:10;stroke-dasharray:none;stroke-opacity:1;fill-opacity:1;fill-rule:evenodd"
         id="path933" />
    </g>
    <g
       id="g935"
       transform="matrix(0.68564139,0,0,-0.68564139,32.396465,19.916238)"
       style="fill:#ffffff;fill-opacity:1;fill-rule:evenodd;stroke:#ffffff;stroke-opacity:1">
      <path
         d="m 0,0 c 0,-5.396 -4.374,-9.77 -9.77,-9.77 -5.395,0 -9.769,4.374 -9.769,9.77 0,5.396 4.374,9.77 9.769,9.77 C -4.374,9.77 0,5.396 0,0 Z"
         style="fill:#ffffff;stroke:#ffffff;stroke-width:10;stroke-linecap:butt;stroke-linejoin:miter;stroke-miterlimit:10;stroke-dasharray:none;stroke-opacity:1;fill-opacity:0;fill-rule:evenodd"
         id="path937" />
    </g>
    <g
       id="g939"
       transform="matrix(0.68564139,0,0,-0.68564139,76.575272,19.916238)"
       style="fill:#ffffff;fill-opacity:1;fill-rule:evenodd;stroke:#ffffff;stroke-opacity:1">
      <path
         d="m 0,0 c 0,-5.396 -4.374,-9.77 -9.77,-9.77 -5.395,0 -9.769,4.374 -9.769,9.77 0,5.396 4.374,9.77 9.769,9.77 C -4.374,9.77 0,5.396 0,0 Z"
         style="fill:#ffffff;stroke:#ffffff;stroke-width:10;stroke-linecap:butt;stroke-linejoin:miter;stroke-miterlimit:10;stroke-dasharray:none;stroke-opacity:1;fill-opacity:0;fill-rule:evenodd"
         id="path941" />
    </g>
    <g
       id="g943"
       transform="matrix(0.68564139,0,0,-0.68564139,54.485903,52.839572)"
       style="fill:#ffffff;fill-opacity:1;fill-rule:evenodd;stroke:#ffffff;stroke-opacity:1">
      <path
         d="m 0,0 c 0,-5.396 -4.374,-9.77 -9.77,-9.77 -5.395,0 -9.769,4.374 -9.769,9.77 0,5.396 4.374,9.77 9.769,9.77 C -4.374,9.77 0,5.396 0,0 Z"
         style="fill:#ffffff;stroke:#ffffff;stroke-width:10;stroke-linecap:butt;stroke-linejoin:miter;stroke-miterlimit:10;stroke-dasharray:none;stroke-opacity:1;fill-opacity:0;fill-rule:evenodd"
         id="path945" />
    </g>
    <g
       id="g947"
       transform="matrix(0.68564139,0,0,-0.68564139,54.485903,99.718108)"
       style="fill:#ffffff;fill-opacity:1;fill-rule:evenodd;stroke:#ffffff;stroke-opacity:1">
      <path
         d="m 0,0 c 0,-5.396 -4.374,-9.77 -9.77,-9.77 -5.395,0 -9.769,4.374 -9.769,9.77 0,5.396 4.374,9.77 9.769,9.77 C -4.374,9.77 0,5.396 0,0 Z"
         style="fill:#ffffff;stroke:#ffffff;stroke-width:10;stroke-linecap:butt;stroke-linejoin:miter;stroke-miterlimit:10;stroke-dasharray:none;stroke-opacity:1;fill-opacity:0;fill-rule:evenodd"
         id="path949" />
    </g>
    <g
       id="g951"
       transform="matrix(1.2995426,0,0,-1.2995426,125.64847,95.955922)"
       style="fill:#ffffff;fill-opacity:1">
      <path
         d="M 0,0 V 22.668 L -19.729,53.859 H -6.98 L 5.694,32.55 18.112,53.859 H 30.641 L 10.838,22.594 V 0 Z"
         style="fill:#ffffff;fill-opacity:1;fill-rule:nonzero;stroke:none"
         id="path953" />
    </g>
    <path
       d="M 172.05447,25.964508 H 186.1857 V 95.956566 H 172.05447 Z"
       style="fill:#ffffff;fill-opacity:1;fill-rule:nonzero;stroke:none;stroke-width:1.29955"
       id="path955" />
    <g
       id="g957"
       transform="matrix(1.2995426,0,0,-1.2995426,244.62509,79.102546)"
       style="fill:#ffffff;fill-opacity:1">
      <path
         d="m 0,0 c 1.396,1.641 2.443,3.625 3.141,5.952 0.698,2.326 1.047,4.996 1.047,8.008 0,6.222 -1.372,10.869 -4.115,13.943 -2.743,3.074 -6.332,4.611 -10.764,4.611 -4.433,0 -8.028,-1.543 -10.783,-4.629 -2.755,-3.087 -4.133,-7.728 -4.133,-13.925 0,-6.294 1.378,-11.002 4.133,-14.126 2.755,-3.122 6.24,-4.684 10.453,-4.684 1.566,0 3.048,0.258 4.445,0.772 -2.204,1.445 -4.445,2.572 -6.724,3.38 l 3.05,6.209 C -6.675,4.286 -3.258,2.449 0,0 m 8.743,-6.135 c 2.67,-1.911 5.572,-3.429 8.707,-4.556 l -4.004,-7.678 c -1.641,0.49 -3.246,1.163 -4.812,2.02 -0.344,0.172 -2.756,1.764 -7.238,4.776 -3.527,-1.543 -7.434,-2.314 -11.72,-2.314 -8.279,0 -14.763,2.437 -19.452,7.311 -4.692,4.873 -7.037,11.72 -7.037,20.536 0,8.793 2.352,15.633 7.054,20.519 4.703,4.886 11.083,7.33 19.142,7.33 7.983,0 14.315,-2.444 18.993,-7.33 4.678,-4.886 7.018,-11.726 7.018,-20.519 0,-4.653 -0.65,-8.743 -1.948,-12.27 -0.98,-2.694 -2.548,-5.303 -4.703,-7.825"
         style="fill:#ffffff;fill-opacity:1;fill-rule:nonzero;stroke:none"
         id="path959" />
    </g>
    <path
       d="m 275.27714,25.964508 h 14.13125 v 69.992058 h -14.13125 z"
       style="fill:#ffffff;fill-opacity:1;fill-rule:nonzero;stroke:none;stroke-width:1.29955"
       id="path961" />
    <g
       id="g963"
       transform="matrix(1.2995426,0,0,-1.2995426,299.29216,73.182218)"
       style="fill:#ffffff;fill-opacity:1">
      <path
         d="m 0,0 10.581,1.029 c 0.636,-3.552 1.929,-6.16 3.876,-7.826 1.946,-1.665 4.573,-2.498 7.88,-2.498 3.502,0 6.142,0.74 7.917,2.223 1.775,1.481 2.664,3.215 2.664,5.198 0,1.273 -0.374,2.357 -1.121,3.251 -0.747,0.894 -2.052,1.672 -3.912,2.333 -1.275,0.441 -4.177,1.225 -8.707,2.352 -5.83,1.445 -9.92,3.22 -12.271,5.327 -3.306,2.963 -4.96,6.576 -4.96,10.838 0,2.743 0.778,5.309 2.333,7.696 1.555,2.389 3.796,4.207 6.723,5.456 2.927,1.249 6.46,1.874 10.6,1.874 6.759,0 11.847,-1.482 15.264,-4.445 3.417,-2.964 5.211,-6.92 5.382,-11.867 L 31.375,20.463 c -0.466,2.768 -1.464,4.758 -2.994,5.971 -1.531,1.212 -3.827,1.818 -6.889,1.818 -3.16,0 -5.634,-0.649 -7.421,-1.947 -1.152,-0.833 -1.727,-1.948 -1.727,-3.344 0,-1.273 0.539,-2.363 1.617,-3.269 1.371,-1.151 4.702,-2.352 9.992,-3.601 5.291,-1.249 9.203,-2.541 11.738,-3.876 2.536,-1.335 4.519,-3.159 5.953,-5.473 1.432,-2.315 2.148,-5.175 2.148,-8.579 0,-3.086 -0.857,-5.976 -2.571,-8.67 -1.715,-2.695 -4.14,-4.697 -7.275,-6.007 -3.135,-1.31 -7.042,-1.965 -11.719,-1.965 -6.809,0 -12.039,1.573 -15.688,4.72 C 2.89,-10.612 0.71,-6.025 0,0"
         style="fill:#ffffff;fill-opacity:1;fill-rule:nonzero;stroke:none"
         id="path965" />
    </g>
    <g
       id="g967"
       transform="matrix(1.2995426,0,0,-1.2995426,379.78637,60.912068)"
       style="fill:#ffffff;fill-opacity:1">
      <path
         d="m 0,0 c 0,-6.099 1.408,-10.722 4.226,-13.869 2.816,-3.148 6.392,-4.721 10.727,-4.721 4.335,0 7.893,1.562 10.673,4.684 2.779,3.123 4.17,7.807 4.17,14.053 0,6.172 -1.355,10.776 -4.061,13.813 -2.706,3.037 -6.299,4.556 -10.782,4.556 -4.482,0 -8.096,-1.537 -10.838,-4.611 C 1.372,10.832 0,6.196 0,0 m -11.205,-0.368 c 0,5.487 0.82,10.091 2.462,13.814 1.224,2.743 2.895,5.204 5.014,7.385 2.119,2.179 4.44,3.796 6.962,4.849 3.356,1.42 7.225,2.131 11.61,2.131 7.935,0 14.285,-2.461 19.049,-7.384 4.763,-4.924 7.145,-11.769 7.145,-20.537 0,-8.695 -2.363,-15.498 -7.09,-20.409 -4.727,-4.911 -11.047,-7.366 -18.957,-7.366 -8.01,0 -14.378,2.443 -19.104,7.33 -4.728,4.886 -7.091,11.615 -7.091,20.187"
         style="fill:#ffffff;fill-opacity:1;fill-rule:nonzero;stroke:none"
         id="path969" />
    </g>
    <g
       id="g971"
       transform="matrix(1.2995426,0,0,-1.2995426,444.24072,95.955922)"
       style="fill:#ffffff;fill-opacity:1">
      <path
         d="M 0,0 V 53.859 H 36.922 V 44.748 H 10.874 V 32 H 33.358 V 22.888 H 10.874 V 0 Z"
         style="fill:#ffffff;fill-opacity:1;fill-rule:nonzero;stroke:none"
         id="path973" />
    </g>
    <g
       id="g975"
       transform="matrix(1.2995426,0,0,-1.2995426,519.6269,95.955922)">
      <path
         d="m 0,0 v 44.748 h -15.981 v 9.111 h 42.8 V 44.748 H 10.875 V 0 Z"
         style="fill:#ffffff;fill-opacity:1;fill-rule:nonzero;stroke:none"
         id="path977" />
    </g>
  </g>
</svg>
